<svg width="100" height="63" viewBox="0 0 100 63" fill="none" xmlns="http://www.w3.org/2000/svg">
<path d="M21.875 0C9.89375 0 0 9.97898 0 22.0495C0 27.5619 1.48125 32.3372 4.31875 35.9785C6.39375 38.6433 9.4625 40.0923 12.4437 41.6484C12.6062 46.682 12.3188 48.0616 8.31875 56.1381C6.2125 60.3842 10.9375 64.7563 14.9563 62.2804C36.2375 49.0759 43.75 33.5972 43.75 22.0495C43.75 9.97898 33.8563 0 21.875 0ZM78.125 0C66.1438 0 56.25 9.97898 56.25 22.0495C56.25 27.5619 57.7313 32.3372 60.5687 35.9785C62.6437 38.6433 65.7125 40.0923 68.6937 41.6484C68.8563 46.682 68.5687 48.0616 64.5687 56.1381C62.4625 60.3842 67.1875 64.7563 71.2062 62.2804C92.4875 49.0759 100 33.5972 100 22.0495C100 9.97898 90.1062 0 78.125 0Z" fill="#171717"/>
</svg>
