<svg width="48" height="48" viewBox="0 0 48 48" fill="none" xmlns="http://www.w3.org/2000/svg">
<path d="M23.8699 4.75C19.4065 4.77948 15.092 6.35916 11.6647 9.21873C8.23738 12.0783 5.91033 16.04 5.08171 20.426C4.25309 24.812 4.9744 29.3496 7.12223 33.2625C9.27005 37.1753 12.7109 40.2201 16.8559 41.876C16.5773 40.0533 16.5773 38.1987 16.8559 36.376L19.1259 26.75C18.7672 25.8781 18.5883 24.9427 18.5999 24C18.5999 21.332 20.1539 19.324 22.0799 19.324C22.4287 19.3187 22.7745 19.3889 23.0936 19.5297C23.4127 19.6705 23.6976 19.8786 23.9287 20.1398C24.1599 20.401 24.3319 20.7091 24.4329 21.0429C24.5339 21.3767 24.5615 21.7285 24.5139 22.074C24.5139 23.138 24.0779 24.546 23.6219 26.022C23.3719 26.836 23.1139 27.672 22.9179 28.482C22.7993 28.9077 22.7851 29.3558 22.8764 29.7882C22.9677 30.2207 23.1619 30.6247 23.4425 30.9662C23.7231 31.3076 24.0819 31.5764 24.4884 31.7497C24.895 31.9231 25.3373 31.9959 25.7779 31.962C29.1879 31.962 31.8279 28.344 31.8279 23.148C31.8617 22.0919 31.675 21.0405 31.28 20.0605C30.8849 19.0806 30.29 18.1937 29.5333 17.4563C28.7765 16.7189 27.8745 16.1473 26.8846 15.7777C25.8947 15.4082 24.8388 15.2489 23.7839 15.31C22.6577 15.2616 21.5333 15.4422 20.4788 15.8409C19.4244 16.2396 18.4618 16.8482 17.6494 17.6298C16.837 18.4113 16.1916 19.3496 15.7523 20.3879C15.3131 21.4261 15.0891 22.5427 15.0939 23.67C15.0795 25.2404 15.5611 26.7753 16.4699 28.056C16.5362 28.1294 16.5832 28.218 16.607 28.3139C16.6307 28.4099 16.6303 28.5102 16.6059 28.606C16.4559 29.212 16.1259 30.532 16.0699 30.792C16.0159 31.052 15.7819 31.218 15.4239 31.052C13.0179 29.926 11.5199 26.42 11.5199 23.588C11.5199 17.524 15.9339 11.942 24.2399 11.942C30.9059 11.942 36.1039 16.698 36.1039 23.066C36.1039 29.692 31.9799 35.026 26.1079 35.026C25.2473 35.0551 24.393 34.8692 23.6223 34.485C22.8516 34.1009 22.1888 33.5307 21.6939 32.826L20.4979 37.406C19.9244 39.1853 19.1203 40.8817 18.1059 42.452C19.975 43.0059 21.9168 43.2749 23.8659 43.25C28.9714 43.25 33.8677 41.2219 37.4778 37.6118C41.0878 34.0017 43.1159 29.1054 43.1159 24C43.1159 18.8946 41.0878 13.9983 37.4778 10.3882C33.8677 6.77812 28.9714 4.75 23.8659 4.75" fill="#F2572B"/>
</svg>
