<svg width="149" height="39" viewBox="0 0 149 39" fill="none" xmlns="http://www.w3.org/2000/svg">
<circle cx="19.2886" cy="19.2886" r="19.2886" fill="#E9E9E9"/>
<path d="M47.1492 28.7555V10.6163H60.9552C61.6102 10.6163 62.2064 10.7843 62.7439 11.1202C63.2981 11.4393 63.7432 11.876 64.0791 12.4303C64.4151 12.9677 64.583 13.5724 64.583 14.2442V17.7209C64.583 17.9392 64.5662 18.1491 64.5326 18.3507C64.499 18.5354 64.4486 18.7202 64.3815 18.9049C64.6502 19.2576 64.8685 19.6439 65.0365 20.0638C65.2044 20.4669 65.2884 20.8784 65.2884 21.2983V25.1277C65.2884 25.7995 65.1205 26.4125 64.7846 26.9668C64.4486 27.5042 64.0036 27.9409 63.4493 28.2768C62.9119 28.596 62.3072 28.7555 61.6354 28.7555H47.1492ZM50.9282 25.1025H61.459C61.5094 25.1025 61.543 25.0941 61.5598 25.0773C61.5934 25.0437 61.6102 25.0017 61.6102 24.9513V21.4998C61.6102 21.4663 61.5934 21.4327 61.5598 21.3991C61.543 21.3655 61.5094 21.3487 61.459 21.3487H50.9282C50.8779 21.3487 50.8359 21.3655 50.8023 21.3991C50.7855 21.4327 50.7771 21.4663 50.7771 21.4998V24.9513C50.7771 25.0017 50.7855 25.0437 50.8023 25.0773C50.8359 25.0941 50.8779 25.1025 50.9282 25.1025ZM50.9282 17.6957H60.7536C60.7872 17.6957 60.8208 17.6873 60.8544 17.6705C60.888 17.6369 60.9048 17.6033 60.9048 17.5697V14.4205C60.9048 14.3701 60.888 14.3366 60.8544 14.3198C60.8208 14.2862 60.7872 14.2694 60.7536 14.2694H50.9282C50.8779 14.2694 50.8359 14.2862 50.8023 14.3198C50.7855 14.3366 50.7771 14.3701 50.7771 14.4205V17.5697C50.7771 17.6033 50.7855 17.6369 50.8023 17.6705C50.8359 17.6873 50.8779 17.6957 50.9282 17.6957ZM82.2947 28.7555L76.9285 22.3564H81.69L86.1241 27.6218V28.7555H82.2947ZM68.0353 28.7555V10.6415H82.5214C83.1932 10.6415 83.7979 10.8095 84.3353 11.1454C84.8896 11.4645 85.3347 11.9012 85.6706 12.4555C86.0065 13.0097 86.1744 13.6143 86.1744 14.2694V19.0561C86.1744 19.7111 86.0065 20.3158 85.6706 20.87C85.3347 21.4075 84.8896 21.8442 84.3353 22.1801C83.7979 22.4992 83.1932 22.6587 82.5214 22.6587L71.6631 22.6839V28.7555H68.0353ZM71.8143 19.0057H82.3451C82.3955 19.0057 82.429 18.9973 82.4458 18.9805C82.4794 18.9469 82.4962 18.9133 82.4962 18.8797V14.4205C82.4962 14.3701 82.4794 14.3366 82.4458 14.3198C82.429 14.2862 82.3955 14.2694 82.3451 14.2694H71.8143C71.7639 14.2694 71.7219 14.2862 71.6883 14.3198C71.6715 14.3366 71.6631 14.3701 71.6631 14.4205V18.8797C71.6631 18.9133 71.6715 18.9469 71.6883 18.9805C71.7219 18.9973 71.7639 19.0057 71.8143 19.0057ZM88.8751 28.7555V14.2442C88.8751 13.5724 89.0346 12.9677 89.3537 12.4303C89.6896 11.876 90.1263 11.4393 90.6638 11.1202C91.218 10.7843 91.8311 10.6163 92.5029 10.6163H103.361C104.033 10.6163 104.638 10.7843 105.175 11.1202C105.729 11.4393 106.174 11.876 106.51 12.4303C106.846 12.9677 107.014 13.5724 107.014 14.2442V28.7555H103.336V22.7847H92.5029V28.7555H88.8751ZM92.5029 19.1569H103.336V14.4205C103.336 14.3701 103.319 14.3366 103.286 14.3198C103.269 14.2862 103.235 14.2694 103.185 14.2694H92.654C92.6037 14.2694 92.5617 14.2862 92.5281 14.3198C92.5113 14.3366 92.5029 14.3701 92.5029 14.4205V19.1569ZM113.513 28.7555C112.841 28.7555 112.228 28.596 111.673 28.2768C111.136 27.9409 110.699 27.5042 110.363 26.9668C110.044 26.4125 109.885 25.7995 109.885 25.1277V14.2442C109.885 13.5724 110.044 12.9677 110.363 12.4303C110.699 11.876 111.136 11.4393 111.673 11.1202C112.228 10.7843 112.841 10.6163 113.513 10.6163H127.973V14.2694H114.369C114.1 14.2694 113.89 14.345 113.739 14.4961C113.588 14.6305 113.513 14.8404 113.513 15.1259V24.2459C113.513 24.5146 113.588 24.7246 113.739 24.8757C113.89 25.0269 114.1 25.1025 114.369 25.1025H127.973V28.7555H113.513ZM130.651 28.7555V10.6163H147.379V14.2694H134.329V17.8468H144.834V21.525H134.329V25.1025H147.379V28.7555H130.651Z" fill="white"/>
<line x1="42.3169" y1="5.90468" x2="42.3169" y2="29.5234" stroke="white" stroke-width="0.393645"/>
<circle cx="19.2886" cy="19.2886" r="13.7776" fill="#C36137"/>
<path d="M11.8094 14.7188H12.8216V15.7311H11.8094V14.7188ZM12.8216 14.7188H13.8338V15.7311H12.8216V14.7188ZM13.8338 14.7188H14.8461V15.7311H13.8338V14.7188ZM14.8461 14.7188H15.8583V15.7311H14.8461V14.7188ZM15.8583 14.7188H16.8705V15.7311H15.8583V14.7188ZM16.8705 14.7188H17.8827V15.7311H16.8705V14.7188ZM16.8705 15.7311H17.8827V16.7433H16.8705V15.7311ZM15.8583 15.7311H16.8705V16.7433H15.8583V15.7311ZM14.8461 15.7311H15.8583V16.7433H14.8461V15.7311ZM13.8338 15.7311H14.8461V16.7433H13.8338V15.7311ZM12.8216 15.7311H13.8338V16.7433H12.8216V15.7311ZM11.8094 15.7311H12.8216V16.7433H11.8094V15.7311ZM17.8827 15.7311H18.895V16.7433H17.8827V15.7311ZM17.8827 16.7433H18.895V17.7555H17.8827V16.7433ZM17.8827 17.7555H18.895V18.7678H17.8827V17.7555ZM16.8705 17.7555H17.8827V18.7678H16.8705V17.7555ZM16.8705 16.7433H17.8827V17.7555H16.8705V16.7433ZM16.8705 18.7678H17.8827V19.78H16.8705V18.7678ZM15.8583 18.7678H16.8705V19.78H15.8583V18.7678ZM14.8461 18.7678H15.8583V19.78H14.8461V18.7678ZM13.8338 18.7678H14.8461V19.78H13.8338V18.7678ZM12.8216 18.7678H13.8338V19.78H12.8216V18.7678ZM12.8216 17.7555H13.8338V18.7678H12.8216V17.7555ZM12.8216 16.7433H13.8338V17.7555H12.8216V16.7433ZM11.8094 16.7433H12.8216V17.7555H11.8094V16.7433ZM11.8094 17.7555H12.8216V18.7678H11.8094V17.7555ZM11.8094 18.7678H12.8216V19.78H11.8094V18.7678ZM11.8094 19.78H12.8216V20.7922H11.8094V19.78ZM12.8216 19.78H13.8338V20.7922H12.8216V19.78ZM13.8338 19.78H14.8461V20.7922H13.8338V19.78ZM14.8461 19.78H15.8583V20.7922H14.8461V19.78ZM15.8583 19.78H16.8705V20.7922H15.8583V19.78ZM16.8705 19.78H17.8827V20.7922H16.8705V19.78ZM17.8827 19.78H18.895V20.7922H17.8827V19.78ZM17.8827 20.7922H18.895V21.8044H17.8827V20.7922ZM16.8705 20.7922H17.8827V21.8044H16.8705V20.7922ZM16.8705 22.8167H17.8827V23.8289H16.8705V22.8167ZM17.8827 22.8167H18.895V23.8289H17.8827V22.8167ZM17.8827 21.8044H18.895V22.8167H17.8827V21.8044ZM16.8705 21.8044H17.8827V22.8167H16.8705V21.8044ZM16.8705 23.8289H17.8827V24.8411H16.8705V23.8289ZM15.8583 23.8289H16.8705V24.8411H15.8583V23.8289ZM14.8461 23.8289H15.8583V24.8411H14.8461V23.8289ZM13.8338 23.8289H14.8461V24.8411H13.8338V23.8289ZM12.8216 23.8289H13.8338V24.8411H12.8216V23.8289ZM11.8094 23.8289H12.8216V24.8411H11.8094V23.8289ZM11.8094 22.8167H12.8216V23.8289H11.8094V22.8167ZM11.8094 21.8044H12.8216V22.8167H11.8094V21.8044ZM11.8094 20.7922H12.8216V21.8044H11.8094V20.7922ZM12.8216 20.7922H13.8338V21.8044H12.8216V20.7922ZM12.8216 21.8044H13.8338V22.8167H12.8216V21.8044ZM12.8216 22.8167H13.8338V23.8289H12.8216V22.8167ZM13.8338 22.8167H14.8461V23.8289H13.8338V22.8167ZM14.8461 22.8167H15.8583V23.8289H14.8461V22.8167ZM15.8583 22.8167H16.8705V23.8289H15.8583V22.8167ZM21.9343 14.7188H22.9465V15.7311H21.9343V14.7188ZM20.9221 14.7188H21.9343V15.7311H20.9221V14.7188ZM20.9221 15.7311H21.9343V16.7433H20.9221V15.7311ZM21.9343 15.7311H22.9465V16.7433H21.9343V15.7311ZM22.9465 15.7311H23.9588V16.7433H22.9465V15.7311ZM22.9465 14.7188H23.9588V15.7311H22.9465V14.7188ZM23.9588 14.7188H24.971V15.7311H23.9588V14.7188ZM24.971 14.7188H25.9832V15.7311H24.971V14.7188ZM24.971 15.7311H25.9832V16.7433H24.971V15.7311ZM23.9588 15.7311H24.971V16.7433H23.9588V15.7311ZM23.9588 16.7433H24.971V17.7555H23.9588V16.7433ZM24.971 16.7433H25.9832V17.7555H24.971V16.7433ZM25.9832 15.7311H26.9955V16.7433H25.9832V15.7311ZM25.9832 16.7433H26.9955V17.7555H25.9832V16.7433ZM25.9832 17.7555H26.9955V18.7678H25.9832V17.7555ZM25.9832 18.7678H26.9955V19.78H25.9832V18.7678ZM25.9832 19.78H26.9955V20.7922H25.9832V19.78ZM25.9832 20.7922H26.9955V21.8044H25.9832V20.7922ZM25.9832 21.8044H26.9955V22.8167H25.9832V21.8044ZM25.9832 22.8167H26.9955V23.8289H25.9832V22.8167ZM24.971 22.8167H25.9832V23.8289H24.971V22.8167ZM24.971 21.8044H25.9832V22.8167H24.971V21.8044ZM24.971 20.7922H25.9832V21.8044H24.971V20.7922ZM24.971 19.78H25.9832V20.7922H24.971V19.78ZM24.971 18.7678H25.9832V19.78H24.971V18.7678ZM24.971 17.7555H25.9832V18.7678H24.971V17.7555ZM23.9588 21.8044H24.971V22.8167H23.9588V21.8044ZM23.9588 22.8167H24.971V23.8289H23.9588V22.8167ZM24.971 23.8289H25.9832V24.8411H24.971V23.8289ZM23.9588 23.8289H24.971V24.8411H23.9588V23.8289ZM22.9465 23.8289H23.9588V24.8411H22.9465V23.8289ZM22.9465 22.8167H23.9588V23.8289H22.9465V22.8167ZM21.9343 23.8289H22.9465V24.8411H21.9343V23.8289ZM20.9221 23.8289H21.9343V24.8411H20.9221V23.8289ZM20.9221 22.8167H21.9343V23.8289H20.9221V22.8167ZM21.9343 22.8167H22.9465V23.8289H21.9343V22.8167ZM20.9221 21.8044H21.9343V22.8167H20.9221V21.8044ZM19.9098 22.8167H20.9221V23.8289H19.9098V22.8167ZM19.9098 21.8044H20.9221V22.8167H19.9098V21.8044ZM19.9098 20.7922H20.9221V21.8044H19.9098V20.7922ZM19.9098 19.78H20.9221V20.7922H19.9098V19.78ZM19.9098 18.7678H20.9221V19.78H19.9098V18.7678ZM19.9098 17.7555H20.9221V18.7678H19.9098V17.7555ZM19.9098 16.7433H20.9221V17.7555H19.9098V16.7433ZM20.9221 16.7433H21.9343V17.7555H20.9221V16.7433ZM19.9098 15.7311H20.9221V16.7433H19.9098V15.7311ZM20.9221 17.7555H21.9343V18.7678H20.9221V17.7555ZM20.9221 18.7678H21.9343V19.78H20.9221V18.7678ZM20.9221 19.78H21.9343V20.7922H20.9221V19.78ZM20.9221 20.7922H21.9343V21.8044H20.9221V20.7922ZM19.9098 23.8289H20.9221V24.8411H19.9098V23.8289ZM19.9098 14.7188H20.9221V15.7311H19.9098V14.7188Z" fill="#EAEAEA"/>
</svg>
