<svg width="70" height="70" viewBox="0 0 70 70" fill="none" xmlns="http://www.w3.org/2000/svg">
<path d="M60.7031 35C60.7031 35.4351 60.5303 35.8524 60.2226 36.1601C59.9149 36.4678 59.4976 36.6406 59.0625 36.6406H36.6406V59.0625C36.6406 59.4976 36.4678 59.9149 36.1601 60.2226C35.8524 60.5303 35.4351 60.7031 35 60.7031C34.5649 60.7031 34.1476 60.5303 33.8399 60.2226C33.5322 59.9149 33.3594 59.4976 33.3594 59.0625V36.6406H10.9375C10.5024 36.6406 10.0851 36.4678 9.7774 36.1601C9.46973 35.8524 9.29688 35.4351 9.29688 35C9.29688 34.5649 9.46973 34.1476 9.7774 33.8399C10.0851 33.5322 10.5024 33.3594 10.9375 33.3594H33.3594V10.9375C33.3594 10.5024 33.5322 10.0851 33.8399 9.7774C34.1476 9.46973 34.5649 9.29688 35 9.29688C35.4351 9.29688 35.8524 9.46973 36.1601 9.7774C36.4678 10.0851 36.6406 10.5024 36.6406 10.9375V33.3594H59.0625C59.4976 33.3594 59.9149 33.5322 60.2226 33.8399C60.5303 34.1476 60.7031 34.5649 60.7031 35Z" fill="black"/>
</svg>
