<svg width="30" height="29" viewBox="0 0 30 29" fill="none" xmlns="http://www.w3.org/2000/svg">
<path d="M12 0H18C18.7956 0 19.5587 0.321615 20.1213 0.894095C20.6839 1.46657 21 2.24302 21 3.05263V6.10526H27C27.7956 6.10526 28.5587 6.42688 29.1213 6.99936C29.6839 7.57184 30 8.34829 30 9.1579V25.9474C30 26.757 29.6839 27.5334 29.1213 28.1059C28.5587 28.6784 27.7956 29 27 29H3C2.20435 29 1.44129 28.6784 0.87868 28.1059C0.31607 27.5334 0 26.757 0 25.9474V9.1579C0 7.46368 1.335 6.10526 3 6.10526H9V3.05263C9 1.35842 10.335 0 12 0ZM18 6.10526V3.05263H12V6.10526H18Z" fill="#F2572B"/>
</svg>
